<?xml version="1.0" ?><svg enable-background="new 0 0 64 64" version="1.1" viewBox="0 0 64 64" xml:space="preserve" xmlns="http://www.w3.org/2000/svg" xmlns:xlink="http://www.w3.org/1999/xlink"><g id="row_4"/><g id="row_3"><g id="payment_x5F_way"><path d="M58,55H6c-2.8,0-5-2.2-5-5V14c0-2.8,2.2-5,5-5h52c2.8,0,5,2.2,5,5v36C63,52.8,60.8,55,58,55z" fill="#1976D2"/><rect fill="#263238" height="10" width="62" x="1" y="14"/><rect fill="#E0F7FA" height="8" width="46" x="9" y="25"/><g><line fill="none" stroke="#1565C0" stroke-miterlimit="10" x1="9.5" x2="12.6" y1="28.6" y2="25.5"/><line fill="none" stroke="#1565C0" stroke-miterlimit="10" x1="11.7" x2="18.7" y1="32.5" y2="25.5"/><line fill="none" stroke="#1565C0" stroke-miterlimit="10" x1="24.8" x2="17.8" y1="25.5" y2="32.5"/><line fill="none" stroke="#1565C0" stroke-miterlimit="10" x1="30.9" x2="23.9" y1="25.5" y2="32.5"/><line fill="none" stroke="#1565C0" stroke-miterlimit="10" x1="37" x2="30" y1="25.5" y2="32.5"/><line fill="none" stroke="#1565C0" stroke-miterlimit="10" x1="43.1" x2="36.1" y1="25.5" y2="32.5"/><line fill="none" stroke="#1565C0" stroke-miterlimit="10" x1="49.3" x2="42.3" y1="25.5" y2="32.5"/><line fill="none" stroke="#1565C0" stroke-miterlimit="10" x1="54.5" x2="48.4" y1="26.4" y2="32.5"/><line fill="none" stroke="#FBC02D" stroke-miterlimit="10" x1="12.6" x2="15.6" y1="28.5" y2="25.5"/><line fill="none" stroke="#FBC02D" stroke-miterlimit="10" x1="21.7" x2="18.7" y1="25.5" y2="28.5"/><line fill="none" stroke="#FBC02D" stroke-miterlimit="10" x1="27.9" x2="24.9" y1="25.5" y2="28.5"/><line fill="none" stroke="#FBC02D" stroke-miterlimit="10" x1="34" x2="31" y1="25.5" y2="28.5"/><line fill="none" stroke="#FBC02D" stroke-miterlimit="10" x1="40.1" x2="37.1" y1="25.5" y2="28.5"/><line fill="none" stroke="#FBC02D" stroke-miterlimit="10" x1="46.2" x2="43.2" y1="25.5" y2="28.5"/><line fill="none" stroke="#FBC02D" stroke-miterlimit="10" x1="52.3" x2="49.3" y1="25.5" y2="28.5"/><line fill="none" stroke="#C62828" stroke-miterlimit="10" x1="54.5" x2="51.4" y1="29.4" y2="32.5"/><line fill="none" stroke="#C62828" stroke-miterlimit="10" x1="11.6" x2="9.5" y1="29.5" y2="31.6"/><line fill="none" stroke="#C62828" stroke-miterlimit="10" x1="17.7" x2="14.7" y1="29.5" y2="32.5"/><line fill="none" stroke="#C62828" stroke-miterlimit="10" x1="20.9" x2="23.9" y1="32.5" y2="29.5"/><line fill="none" stroke="#C62828" stroke-miterlimit="10" x1="27" x2="30" y1="32.5" y2="29.5"/><line fill="none" stroke="#C62828" stroke-miterlimit="10" x1="33.1" x2="36.1" y1="32.5" y2="29.5"/><line fill="none" stroke="#C62828" stroke-miterlimit="10" x1="39.2" x2="42.2" y1="32.5" y2="29.5"/><line fill="none" stroke="#C62828" stroke-miterlimit="10" x1="45.3" x2="48.3" y1="32.5" y2="29.5"/></g><path d="M52,47.5h-4c-3,0-5.5-2.5-5.5-5.5v0c0-3,2.5-5.5,5.5-5.5h4    c3,0,5.5,2.5,5.5,5.5v0C57.5,45,55,47.5,52,47.5z" fill="none" stroke="#E0E0E0" stroke-miterlimit="10"/><path d="M48,38.5c0.7,0,1.4,0.2,2,0.6c-0.9,0.6-1.5,1.7-1.5,2.9h3c0,1.2-0.6,2.2-1.5,2.9c-0.6,0.4-1.3,0.6-2,0.6    c-1.9,0-3.5-1.6-3.5-3.5S46.1,38.5,48,38.5z" fill="#D32F2F"/><path d="M48.5,42c0-1.2,0.6-2.2,1.5-2.9c0.6-0.4,1.3-0.6,2-0.6c1.9,0,3.5,1.6,3.5,3.5s-1.6,3.5-3.5,3.5    c-0.7,0-1.4-0.2-2-0.6c0.9-0.6,1.5-1.7,1.5-2.9H48.5z" fill="#F57C00"/><g><line fill="none" stroke="#E0E0E0" stroke-miterlimit="10" x1="18" x2="11" y1="36.5" y2="36.5"/><line fill="none" stroke="#E0E0E0" stroke-miterlimit="10" x1="10" x2="6" y1="36.5" y2="36.5"/><line fill="none" stroke="#E0E0E0" stroke-miterlimit="10" x1="28" x2="19" y1="36.5" y2="36.5"/><line fill="none" stroke="#E0E0E0" stroke-miterlimit="10" x1="22" x2="28" y1="38.5" y2="38.5"/><line fill="none" stroke="#E0E0E0" stroke-miterlimit="10" x1="6" x2="21" y1="38.5" y2="38.5"/><line fill="none" stroke="#E0E0E0" stroke-miterlimit="10" x1="22" x2="28" y1="42.5" y2="42.5"/><line fill="none" stroke="#E0E0E0" stroke-miterlimit="10" x1="10" x2="6" y1="42.5" y2="42.5"/><line fill="none" stroke="#E0E0E0" stroke-miterlimit="10" x1="21" x2="11" y1="42.5" y2="42.5"/><line fill="none" stroke="#E0E0E0" stroke-miterlimit="10" x1="28" x2="20" y1="44.5" y2="44.5"/><line fill="none" stroke="#E0E0E0" stroke-miterlimit="10" x1="19" x2="6" y1="44.5" y2="44.5"/><line fill="none" stroke="#E0E0E0" stroke-miterlimit="10" x1="28" x2="18" y1="46.5" y2="46.5"/><line fill="none" stroke="#E0E0E0" stroke-miterlimit="10" x1="6" x2="17" y1="46.5" y2="46.5"/></g></g></g><g id="row_2"/><g id="row_1"/></svg>