<?xml version="1.0" ?><svg id="Flat" viewBox="0 0 64 64" xmlns="http://www.w3.org/2000/svg"><defs><style>.cls-1{fill:#faa307;}.cls-2{fill:#ffd100;}.cls-3{fill:#fff;}</style></defs><g id="Color"><path class="cls-1" d="M51.747,9.49,49.08,4.871a1.778,1.778,0,0,0-2.428-.651l-41.569,24a1.777,1.777,0,0,0-.65,2.428L7.1,35.267a6.667,6.667,0,1,1,6.667,11.547l2.222,3.849a2.667,2.667,0,0,0,3.643.976L59.66,28.528a2.667,2.667,0,0,0,.976-3.643l-2.223-3.848A6.666,6.666,0,0,1,51.747,9.49Z"/><path class="cls-2" d="M61,36V30a2,2,0,0,0-2-2H5a2,2,0,0,0-2,2v6A7.5,7.5,0,0,1,3,51v5a3,3,0,0,0,3,3H58a3,3,0,0,0,3-3V51a7.5,7.5,0,0,1,0-15Z"/><circle class="cls-3" cx="34" cy="38" r="3"/><circle class="cls-3" cx="46" cy="50" r="3"/><path class="cls-3" d="M32.5,51.5a2.109,2.109,0,0,1,.009-2.991L44.586,36.586a2,2,0,0,1,2.828,2.828L35.491,51.491A2.109,2.109,0,0,1,32.5,51.5Z"/><path class="cls-3" d="M23,32a1,1,0,0,0,1-1V28H22v3A1,1,0,0,0,23,32Z"/><path class="cls-3" d="M23,42a1,1,0,0,0,1-1V36a1,1,0,0,0-2,0v5A1,1,0,0,0,23,42Z"/><path class="cls-3" d="M23,52a1,1,0,0,0,1-1V46a1,1,0,0,0-2,0v5A1,1,0,0,0,23,52Z"/><path class="cls-3" d="M23,55a1,1,0,0,0-1,1v3h2V56A1,1,0,0,0,23,55Z"/></g></svg>