<svg width="1920" height="766" viewBox="0 0 1920 766" fill="none" xmlns="http://www.w3.org/2000/svg">
<g id="bg">
<rect id="dark bg copy" width="1920" height="760" fill="rgba(255,255,255,0)"/>
<g id="illustrated graph copy">
<g id="graphBG">
<g id="chart" opacity="0.75">
<g id="Group">
<path id="Line Copy 6" opacity="0.60681" d="M81.5 0V758.991" stroke="#8CA0B3" stroke-width="0.5" stroke-linecap="square" stroke-dasharray="2 2 2"/>
<path id="Line Copy 7" opacity="0.60681" d="M166.5 0V758.991" stroke="#8CA0B3" stroke-width="0.5" stroke-linecap="square" stroke-dasharray="2 2 2"/>
<path id="Line Copy 8" opacity="0.60681" d="M251.5 0V758.991" stroke="#8CA0B3" stroke-width="0.5" stroke-linecap="square" stroke-dasharray="2 2 2"/>
<path id="Line Copy 9" opacity="0.60681" d="M336.5 0V758.991" stroke="#8CA0B3" stroke-width="0.5" stroke-linecap="square" stroke-dasharray="2 2 2"/>
<path id="Line Copy 10" opacity="0.60681" d="M421.5 0V758.991" stroke="#8CA0B3" stroke-width="0.5" stroke-linecap="square" stroke-dasharray="2 2 2"/>
<path id="Line Copy 11" opacity="0.60681" d="M506.5 0V758.991" stroke="#8CA0B3" stroke-width="0.5" stroke-linecap="square" stroke-dasharray="2 2 2"/>
<path id="Line Copy 12" opacity="0.60681" d="M591.5 0V758.991" stroke="#8CA0B3" stroke-width="0.5" stroke-linecap="square" stroke-dasharray="2 2 2"/>
<path id="Line Copy 13" opacity="0.60681" d="M676.5 0V758.991" stroke="#8CA0B3" stroke-width="0.5" stroke-linecap="square" stroke-dasharray="2 2 2"/>
<path id="Line Copy 14" opacity="0.60681" d="M761.5 0V758.991" stroke="#8CA0B3" stroke-width="0.5" stroke-linecap="square" stroke-dasharray="2 2 2"/>
<path id="Line Copy 15" opacity="0.60681" d="M846.5 0V758.991" stroke="#8CA0B3" stroke-width="0.5" stroke-linecap="square" stroke-dasharray="2 2 2"/>
<path id="Line Copy 16" opacity="0.60681" d="M931.5 0V758.991" stroke="#8CA0B3" stroke-width="0.5" stroke-linecap="square" stroke-dasharray="2 2 2"/>
<path id="Line Copy 18" opacity="0.60681" d="M1533.5 0V758.991" stroke="#8CA0B3" stroke-width="0.5" stroke-linecap="square" stroke-dasharray="2 2 2"/>
<path id="Line Copy 17" opacity="0.60681" d="M1017.5 1.00928V760" stroke="#8CA0B3" stroke-width="0.5" stroke-linecap="square" stroke-dasharray="2 2 2"/>
<path id="Line Copy 19" opacity="0.60681" d="M1619.5 1.00928V760" stroke="#8CA0B3" stroke-width="0.5" stroke-linecap="square" stroke-dasharray="2 2 2"/>
<path id="Line Copy 23" opacity="0.60681" d="M1103.5 1.00928V760" stroke="#8CA0B3" stroke-width="0.5" stroke-linecap="square" stroke-dasharray="2 2 2"/>
<path id="Line Copy 28" opacity="0.60681" d="M1705.5 1.00928V760" stroke="#8CA0B3" stroke-width="0.5" stroke-linecap="square" stroke-dasharray="2 2 2"/>
<path id="Line Copy 24" opacity="0.60681" d="M1189.5 1.00928V760" stroke="#8CA0B3" stroke-width="0.5" stroke-linecap="square" stroke-dasharray="2 2 2"/>
<path id="Line Copy 29" opacity="0.60681" d="M1791.5 1.00928V760" stroke="#8CA0B3" stroke-width="0.5" stroke-linecap="square" stroke-dasharray="2 2 2"/>
<path id="Line Copy 25" opacity="0.60681" d="M1275.5 1.00928V760" stroke="#8CA0B3" stroke-width="0.5" stroke-linecap="square" stroke-dasharray="2 2 2"/>
<path id="Line Copy 30" opacity="0.60681" d="M1877.5 1.00928V760" stroke="#8CA0B3" stroke-width="0.5" stroke-linecap="square" stroke-dasharray="2 2 2"/>
<path id="Line Copy 26" opacity="0.60681" d="M1361.5 1.00928V760" stroke="#8CA0B3" stroke-width="0.5" stroke-linecap="square" stroke-dasharray="2 2 2"/>
<path id="Line Copy 27" opacity="0.60681" d="M1447.5 1.00928V760" stroke="#8CA0B3" stroke-width="0.5" stroke-linecap="square" stroke-dasharray="2 2 2"/>
</g>
<path id="Line Copy 22" opacity="0.756413" d="M-0.0589687 85.25H1919.91" stroke="#8CA0B3" stroke-width="0.5" stroke-linecap="square" stroke-dasharray="2 2 2"/>
<path id="Line Copy 31" opacity="0.756413" d="M-0.0589687 170.25H1919.91" stroke="#8CA0B3" stroke-width="0.5" stroke-linecap="square" stroke-dasharray="2 2 2"/>
<path id="Line Copy 32" opacity="0.756413" d="M-0.0589687 255.25H1919.91" stroke="#8CA0B3" stroke-width="0.5" stroke-linecap="square" stroke-dasharray="2 2 2"/>
<path id="Line Copy 33" opacity="0.756413" d="M-0.0589687 340.25H1919.91" stroke="#8CA0B3" stroke-width="0.5" stroke-linecap="square" stroke-dasharray="2 2 2"/>
<path id="Line Copy 34" opacity="0.756413" d="M-0.0589687 425.25H1919.91" stroke="#8CA0B3" stroke-width="0.5" stroke-linecap="square" stroke-dasharray="2 2 2"/>
<path id="Line Copy 35" opacity="0.756413" d="M-0.0589687 510.25H1919.91" stroke="#8CA0B3" stroke-width="0.5" stroke-linecap="square" stroke-dasharray="2 2 2"/>
<path id="Line Copy 36" opacity="0.756413" d="M-0.0589687 595.25H1919.91" stroke="#8CA0B3" stroke-width="0.5" stroke-linecap="square" stroke-dasharray="2 2 2"/>
<path id="Line Copy 37" opacity="0.756413" d="M-0.0589687 680.25H1919.91" stroke="#8CA0B3" stroke-width="0.5" stroke-linecap="square" stroke-dasharray="2 2 2"/>
<path id="Line Copy 38" opacity="0.756413" d="M-0.0589687 765.25H1919.91" stroke="#8CA0B3" stroke-width="0.5" stroke-linecap="square" stroke-dasharray="2 2 2"/>
</g>
<path id="bg2" opacity="0.2" fill-rule="evenodd" clip-rule="evenodd" d="M1917.48 501.432C1864.65 440.754 1769.08 402.953 1714.43 413.295C1602.43 434.491 1638.01 361.086 1546.87 366.321C1496.62 369.208 1465.36 312.087 1405.2 312.087C1345.04 312.087 1342.3 348.397 1271.6 348.397C1200.91 348.397 1191.09 274.915 1141.67 274.915C1092.25 274.915 1096.13 328.337 1030.4 335.309C972.701 341.429 944.319 288.92 882.789 281.917C821.259 274.915 805.383 300.982 746.04 296.383C690.345 292.068 672.017 250.892 603.941 255.075C535.866 259.257 536.683 286.31 471.063 296.383C420.661 304.12 401.678 277.074 358.477 281.917C315.275 286.76 264.873 334.31 220.362 322.691C135.492 300.537 133.014 223.332 79.3374 209.083C40.8812 198.875 19.1503 215.728 1.93152 234.565C-4.45911 241.555 1.93152 630 1.93152 630H1917.48C1917.48 630 1923.15 507.934 1917.48 501.432Z" fill="url(#paint0_linear)" fill-opacity="0.2" stroke="#8CA0B3" stroke-opacity="0.7"/>
<path id="bg2 copy" opacity="0.2" fill-rule="evenodd" clip-rule="evenodd" d="M1917.48 501.439C1864.65 440.76 1769.08 402.958 1714.43 413.3C1602.43 434.496 1638.01 361.09 1546.87 366.325C1496.62 369.212 1465.36 312.09 1405.2 312.09C1345.04 312.09 1342.3 348.4 1271.6 348.4C1200.91 348.4 1191.09 274.916 1141.67 274.916C1092.25 274.916 1096.13 328.34 1030.4 335.313C972.701 341.433 944.319 288.922 882.789 281.919C821.259 274.916 805.383 300.984 746.04 296.385C690.345 292.07 672.017 250.893 603.941 255.076C535.866 259.259 536.683 286.312 471.063 296.385C420.661 304.122 401.678 277.076 358.477 281.919C315.275 286.762 264.873 334.313 220.362 322.694C135.492 300.539 133.014 223.333 79.3374 209.084C40.552 198.787 18.7793 216.019 1.49023 235.049C-4.72534 241.891 1.49023 761 1.49023 761H1917.48C1917.48 761 1923.15 507.941 1917.48 501.439Z" fill="url(#paint1_linear)" fill-opacity="0.2" stroke="#8CA0B3" stroke-opacity="0.7"/>
<path id="red fill" fill-rule="evenodd" clip-rule="evenodd" d="M1918.64 548.168C1918.64 548.168 1854.41 507.661 1761.05 512.612C1667.69 517.564 1651.05 541.03 1555.39 556.322C1459.74 571.615 1425.24 523 1342.12 526.568C1259 530.137 1231.84 559.099 1134.89 538.091C1069.85 524 992.186 376.023 993.007 283.961C993.219 260.116 993.348 761 993.348 761H1920L1918.64 548.168Z" fill="url(#paint2_linear)" fill-opacity="0.2"/>
<path id="line red" d="M1920 548.003C1920 548.003 1855.75 507.527 1762.35 512.475C1668.95 517.423 1652.31 540.87 1556.62 556.151C1460.93 571.432 1426.41 522.855 1343.26 526.42C1260.1 529.986 1220.16 560.831 1135.94 537.919C1066.4 519 993.186 375.991 994.007 284" stroke="#b2bec2"/>
<path id="#38596A" opacity="0.2" fill-rule="evenodd" clip-rule="evenodd" d="M992.673 284.252C945.002 290.012 900.876 235.779 866.742 223.995C800.123 200.994 771.968 243.875 728.676 241.995C685.383 240.115 637.408 182.994 588.92 182.994C540.432 182.994 520.735 209.932 459.182 209.178C397.63 208.425 380.554 175.068 326.824 182.994C273.094 190.92 267.852 258.042 199.707 258.042C131.562 258.042 120.212 124.197 67.0209 113.564C19.3983 104.044 -1 141.099 -1 141.099V761H993C993 761 991.885 376.247 992.673 284.252Z" fill="url(#paint3_linear)" fill-opacity="0.2" stroke="#8CA0B3" stroke-opacity="0.7"/>
<g id="dot copy" filter="url(#filter0_d)">
<circle cx="994" cy="284" r="7" fill="#b2bec2"/>
<circle cx="994" cy="284" r="7" stroke="#b2bec2" stroke-opacity="0.1" stroke-width="10"/>
</g>
</g>
</g>
</g>
<defs>

<linearGradient id="paint0_linear" x1="1695.57" y1="282.136" x2="1695.57" y2="607.061" gradientUnits="userSpaceOnUse">
<stop stop-color="white"/>
<stop offset="1" stop-color="#38596A" stop-opacity="0.370358"/>
</linearGradient>
<linearGradient id="paint1_linear" x1="1695.53" y1="305.659" x2="1695.53" y2="730.974" gradientUnits="userSpaceOnUse">
<stop stop-color="white"/>
<stop offset="1" stop-color="#38596A" stop-opacity="0.370358"/>
</linearGradient>
<linearGradient id="paint2_linear" x1="1836.77" y1="368.944" x2="1836.77" y2="761" gradientUnits="userSpaceOnUse">
<stop stop-color="#beccd0"/>
<stop offset="1" stop-color="#beccd0" stop-opacity="0.370358"/>
</linearGradient>
<linearGradient id="paint3_linear" x1="876.867" y1="228.538" x2="876.867" y2="725.888" gradientUnits="userSpaceOnUse">
<stop stop-color="#38596A"/>
<stop offset="1" stop-color="#beccd0" stop-opacity="0.370358"/>
</linearGradient>
</defs>
</svg>
