<?xml version="1.0" ?><!DOCTYPE svg  PUBLIC '-//W3C//DTD SVG 1.1//EN'  'http://www.w3.org/Graphics/SVG/1.1/DTD/svg11.dtd'><svg enable-background="new 0 0 64 64" height="64px" id="Layer_1" version="1.1" viewBox="0 0 64 64" width="64px" xml:space="preserve" xmlns="http://www.w3.org/2000/svg" xmlns:xlink="http://www.w3.org/1999/xlink"><g><g><g><path d="M50.3,5.9c-2.8-3.2-8-4.6-14.5-4.6H16.7c-1.3,0-2.5,1-2.7,2.3L6,54c-0.2,1,0.6,1.9,1.6,1.9h11.8l3-18.8     l-0.1,0.6c0.2-1.3,1.3-2.3,2.7-2.3h5.6c11,0,19.6-4.5,22.1-17.4c0.1-0.4,0.1-0.8,0.2-1.1c-0.3-0.2-0.3-0.2,0,0     C53.6,12.1,52.9,8.9,50.3,5.9" fill="#263B80"/></g><g><path d="M52.9,16.9L52.9,16.9c-0.1,0.4-0.1,0.7-0.2,1.1c-2.5,12.9-11.1,17.4-22.1,17.4H25c-1.3,0-2.5,1-2.7,2.3     L18.6,61c-0.1,0.9,0.5,1.7,1.4,1.7h9.9c1.2,0,2.2-0.9,2.4-2l0.1-0.5l1.9-11.8l0.1-0.7c0.2-1.2,1.2-2,2.4-2h1.5     c9.6,0,17.1-3.9,19.3-15.2c0.9-4.7,0.4-8.7-2-11.4C54.8,18.2,53.9,17.5,52.9,16.9" fill="#139AD6"/></g><g><path d="M50.2,15.9c-0.4-0.1-0.8-0.2-1.2-0.3c-0.4-0.1-0.8-0.2-1.3-0.2c-1.5-0.3-3.2-0.4-4.9-0.4H27.9     c-0.4,0-0.7,0.1-1,0.2c-0.7,0.3-1.2,1-1.3,1.8l-3.2,20.1l-0.1,0.6c0.2-1.3,1.3-2.3,2.7-2.3h5.6c11,0,19.6-4.5,22.1-17.4     c0.1-0.4,0.1-0.8,0.2-1.1c-0.6-0.3-1.3-0.6-2.1-0.9C50.6,16,50.4,15.9,50.2,15.9" fill="#232C65"/></g><g><path d="M35.7,1.3H16.7c-1.3,0-2.5,1-2.7,2.3L9.4,32.4L40.2,1.6C38.8,1.4,37.3,1.3,35.7,1.3z" fill="#2A4DAD"/></g><g><path d="M56.5,20.5c-0.3-0.5-0.5-1-0.9-1.5c-0.7-0.8-1.7-1.5-2.7-2.1c-0.1,0.4-0.1,0.7-0.2,1.1     c-2.5,12.9-11.1,17.4-22.1,17.4H25c-1.3,0-2.5,1-2.7,2.3l-3.2,20.2L56.5,20.5z" fill="#0D7DBC"/></g><g><path d="M7.6,55.9h11.8l2.9-18.2c0-0.3,0.1-0.5,0.2-0.7L6.1,53.4L6,54C5.9,55,6.6,55.9,7.6,55.9z" fill="#232C65"/></g></g><g><path d="M32.1,1.3H16.7c-0.4,0-0.7,0.1-1,0.2L14.2,3C14.1,3.2,14,3.4,14,3.6l-3,18.8L32.1,1.3z" fill="#436BC4"/></g><g><g><path d="M57.6,30.4c0.3-1.5,0.4-2.9,0.4-4.3L38.5,45.6C48,45.5,55.4,41.6,57.6,30.4z" fill="#0CB2ED"/></g><g><path d="M32.4,60.2l1.6-10L21.5,62.7h8.5c1.2,0,2.2-0.9,2.4-2L32.4,60.2z" fill="#0CB2ED"/></g></g><g opacity="0.6"><g><path d="M52.3,19.6l5.7,5.7c0-0.7-0.2-1.4-0.3-2.1l-5-5C52.5,18.7,52.4,19.1,52.3,19.6z" fill="#33E2FF"/></g><g><path d="M50.9,23.8c-0.2,0.4-0.4,0.8-0.6,1.2l6.9,6.9c0.1-0.5,0.2-1,0.3-1.5c0,0,0,0,0,0L50.9,23.8z" fill="#33E2FF"/></g><g><path d="M55.2,37.2c0.2-0.4,0.4-0.8,0.6-1.2l-7.6-7.6c-0.3,0.3-0.5,0.7-0.8,1L55.2,37.2z" fill="#33E2FF"/></g><g><path d="M43.2,32.6l8.7,8.7c0.3-0.3,0.6-0.6,0.9-0.9l-8.5-8.5C43.9,32.1,43.6,32.3,43.2,32.6z" fill="#33E2FF"/></g><g><path d="M37.9,34.6l9.5,9.5c0.4-0.2,0.8-0.4,1.2-0.6l-9.3-9.3C38.8,34.3,38.4,34.5,37.9,34.6z" fill="#33E2FF"/></g><g><path d="M41.4,45.5c0.5-0.1,1.1-0.1,1.6-0.2L33,35.3c-0.6,0-1.1,0.1-1.7,0.1L41.4,45.5z" fill="#33E2FF"/></g><g><path d="M25.8,35.4H25c-0.3,0-0.6,0.1-0.8,0.1L35,46.4c0.3-0.3,0.7-0.6,1.1-0.7L25.8,35.4z" fill="#33E2FF"/></g><g><polygon fill="#33E2FF" points="21.8,40.6 33.6,52.4 33.9,50.8 22.1,39    "/></g><g><polygon fill="#33E2FF" points="20.8,46.9 32.6,58.7 32.9,57.2 21.1,45.4    "/></g><g><path d="M20.1,51.7l-0.2,1.6l9.4,9.4h0.7c0.3,0,0.6-0.1,0.9-0.2L20.1,51.7z" fill="#33E2FF"/></g><g><polygon fill="#33E2FF" points="18.8,59.6 21.9,62.7 23.7,62.7 19.1,58.1    "/></g></g></g></svg>