<svg xmlns="http://www.w3.org/2000/svg" width="1440" height="357" viewBox="0 0 1440 357">
    <defs>
        <linearGradient id="prefix__a" x1="50%" x2="50%" y1="17.957%" y2="100%">
            <stop offset="0%" stop-color="#DAE5EA"/>
            <stop offset="100%" stop-color="#F4F7F8"/>
        </linearGradient>
        <linearGradient id="prefix__b" x1="50%" x2="50%" y1="17.957%" y2="84.14%">
            <stop offset="0%" stop-color="#E7F0F4"/>
            <stop offset="100%" stop-color="#F3F7F9"/>
        </linearGradient>
    </defs>
    <g fill="none" fill-rule="evenodd">
        <path fill="url(#prefix__a)" d="M968.036 0C863.943 0 858.518 69.319 742.795 90.523 627.072 111.727 611.59 59.336 509.22 68.583s-131.692 68.175-247.437 47.006C146.038 94.419 138.328 31.594 2 0v298h1438V69.305c-64.274 44.969-132.044 67.453-203.311 67.453C1113.206 136.758 1072.13 0 968.036 0z"/>
        <path fill="url(#prefix__b)" d="M1127.162 31c-114.266 0-143.15 132.777-284.043 132.777-140.905 0-171.72-56.48-270.469-56.48-126.678 0-149.978 88.441-290.872 88.441C140.894 195.738 140.894 31 0 31v326h1438l-1.587-194.777c-13.196.89-23.498 1.335-30.906 1.335C1264.593 163.558 1241.428 31 1127.162 31z" transform="matrix(-1 0 0 1 1438 0)"/>
    </g>
</svg>
