<svg width="32" height="32" viewBox="0 0 32 32" fill="none" xmlns="http://www.w3.org/2000/svg">
<g>
<path d="M30.8308 0.500158L2.73793 9.29013C2.62112 9.31933 2.56271 9.45075 2.59191 9.56756L4.7529 16.693C4.78211 16.8098 4.91352 16.8828 5.01573 16.839L25.6181 10.3852C26.5964 10.0786 27.4287 9.39234 27.9105 8.45786C29.1955 5.99024 30.2467 3.43502 31.0644 0.777582C31.152 0.602367 30.9914 0.456354 30.8308 0.500158Z" fill="#FFBB1C"/>
<path d="M24.0858 12.8236L6.63723 18.2845C6.54962 18.3137 6.47661 18.4159 6.52042 18.5181L8.36018 24.5338C8.38938 24.6214 8.49159 24.6944 8.5938 24.6652L19.72 21.1755C20.5523 20.9127 21.2531 20.3287 21.662 19.5548C22.7424 17.4814 23.6477 15.3058 24.3194 13.0572C24.3632 12.9258 24.2318 12.7798 24.0858 12.8236Z" fill="#E8486C"/>
<path d="M17.4554 23.8326L10.1839 26.1104C10.0963 26.125 10.0671 26.2272 10.0817 26.3002L11.6294 31.3961C11.644 31.4837 11.7463 31.5275 11.8193 31.4983L13.7466 30.8996C14.4475 30.6806 15.0315 30.1842 15.382 29.5271C16.3019 27.775 17.0465 25.9352 17.6306 24.037C17.689 23.9056 17.5722 23.7888 17.4554 23.8326Z" fill="#476DF2"/>
</g>
</svg>
